<?xml version="1.0" standalone="no"?>
<!DOCTYPE svg PUBLIC "-//W3C//DTD SVG 20010904//EN"
 "http://www.w3.org/TR/2001/REC-SVG-20010904/DTD/svg10.dtd">
<svg version="1.0" xmlns="http://www.w3.org/2000/svg"
 width="136.000000pt" height="157.000000pt" viewBox="0 0 136.000000 157.000000"
 preserveAspectRatio="xMidYMid meet">

<g transform="translate(0.000000,157.000000) scale(0.100000,-0.100000)"
fill="#000000" stroke="none">
<path d="M0 785 l0 -785 680 0 680 0 0 785 0 785 -680 0 -680 0 0 -785z m1203
688 c58 -26 59 -28 38 -41 l-21 -15 25 -33 c14 -19 37 -57 50 -86 l25 -53 -30
-3 c-20 -2 -30 -9 -30 -20 0 -9 -11 -41 -25 -71 -17 -37 -29 -51 -40 -48 -8 4
-16 -1 -20 -11 -3 -9 -18 -33 -34 -52 -29 -34 -29 -34 -50 -16 -12 11 -22 17
-24 15 -1 -2 -12 -18 -25 -36 -26 -38 -28 -56 -6 -73 28 -24 92 -144 114 -215
24 -80 29 -212 10 -270 -11 -34 -10 -39 13 -63 72 -75 55 -197 -33 -243 -67
-36 -177 -13 -216 45 -14 22 -24 25 -95 28 l-79 3 0 -27 c0 -16 -9 -37 -20
-48 -19 -19 -33 -20 -319 -20 -299 0 -300 0 -315 22 -14 20 -16 98 -16 648 0
550 2 628 16 648 15 21 20 22 210 22 201 0 227 -4 275 -46 12 -11 23 -11 50
-3 19 5 83 9 143 7 99 -2 109 -1 125 18 62 77 182 92 304 37z"/>
<path d="M1005 1460 c-47 -15 -98 -70 -64 -70 5 0 32 7 59 16 39 13 56 14 83
5 101 -34 121 -155 38 -232 -43 -40 -53 -77 -27 -98 11 -9 18 -6 34 17 12 15
24 40 27 55 6 21 12 26 26 22 23 -8 39 21 39 69 0 25 4 36 15 36 34 0 2 64
-57 114 -24 19 -37 36 -30 36 23 0 12 18 -15 24 -65 13 -100 14 -128 6z"/>
<path d="M125 1408 c-3 -7 -4 -290 -3 -628 l3 -615 290 0 290 0 3 32 c2 25 -2
34 -20 43 -13 7 -49 32 -80 56 -31 24 -86 58 -123 74 -55 25 -68 35 -82 67
-18 43 -13 136 8 171 28 45 92 54 145 21 32 -19 74 -19 74 1 0 15 -48 39 -110
57 -67 18 -119 59 -122 96 -1 12 -2 30 -2 40 -1 10 -6 21 -12 25 -33 21 -42
77 -20 120 13 26 12 29 -16 60 -16 19 -35 31 -43 29 -13 -6 -65 95 -65 126 0
10 -11 17 -30 19 l-30 3 31 60 c16 33 40 70 52 83 18 20 19 24 7 32 -8 5 -19
10 -25 10 -5 0 -1 7 9 15 18 14 13 15 -52 15 -49 0 -74 -4 -77 -12z m85 -438
c0 -83 -1 -90 -20 -90 -19 0 -20 7 -20 90 0 83 1 90 20 90 19 0 20 -7 20 -90z
m90 -65 c0 -58 -2 -65 -20 -65 -18 0 -20 7 -20 65 0 58 2 65 20 65 18 0 20 -7
20 -65z m-90 -95 c0 -13 -7 -20 -20 -20 -13 0 -20 7 -20 20 0 13 7 20 20 20
13 0 20 -7 20 -20z m90 -85 c0 -58 -2 -65 -20 -65 -18 0 -20 7 -20 65 0 58 2
65 20 65 18 0 20 -7 20 -65z m90 -70 c0 -38 -3 -45 -20 -45 -17 0 -20 7 -20
45 0 38 3 45 20 45 17 0 20 -7 20 -45z m-180 -70 c0 -58 -2 -65 -20 -65 -18 0
-20 7 -20 65 0 58 2 65 20 65 18 0 20 -7 20 -65z m90 -130 c0 -148 -1 -155
-20 -155 -19 0 -20 7 -20 155 0 148 1 155 20 155 19 0 20 -7 20 -155z m-90 -5
c0 -13 -7 -20 -20 -20 -13 0 -20 7 -20 20 0 13 7 20 20 20 13 0 20 -7 20 -20z
m180 -135 c0 -58 -2 -65 -20 -65 -18 0 -20 7 -20 65 0 58 2 65 20 65 18 0 20
-7 20 -65z m-180 -40 c0 -58 -2 -65 -20 -65 -18 0 -20 7 -20 65 0 58 2 65 20
65 18 0 20 -7 20 -65z m270 -25 c0 -33 -3 -40 -20 -40 -17 0 -20 7 -20 40 0
33 3 40 20 40 17 0 20 -7 20 -40z m-180 -20 c0 -13 -7 -20 -20 -20 -13 0 -20
7 -20 20 0 13 7 20 20 20 13 0 20 -7 20 -20z m270 0 c0 -13 -7 -20 -20 -20
-13 0 -20 7 -20 20 0 13 7 20 20 20 13 0 20 -7 20 -20z"/>
<path d="M355 1407 c-24 -11 -26 -14 -12 -20 13 -5 7 -16 -38 -61 -54 -54 -69
-86 -40 -86 10 0 15 -11 15 -35 0 -49 19 -88 37 -73 7 6 14 9 16 7 1 -2 11
-22 22 -44 17 -34 82 -92 91 -82 11 11 -38 98 -74 133 -38 37 -42 47 -42 89 0
88 59 142 145 133 23 -3 50 -1 60 4 51 29 -119 62 -180 35z"/>
<path d="M632 1371 c-92 -24 -161 -106 -169 -202 -8 -78 15 -135 73 -189 46
-42 64 -44 64 -7 0 32 35 84 72 107 20 12 51 20 79 20 75 0 120 -40 156 -139
l9 -24 43 38 c58 53 81 101 81 172 -1 98 -49 172 -135 209 -45 19 -219 29
-273 15z m6 -245 c19 -12 14 -23 -16 -34 -16 -6 -37 -6 -52 0 -32 12 -35 15
-22 30 11 14 71 16 90 4z m314 -4 c17 -17 -1 -32 -41 -32 -42 0 -68 19 -50 37
12 12 77 9 91 -5z"/>
<path d="M1012 1369 l-23 -9 30 -37 c17 -21 37 -55 46 -75 18 -44 28 -47 49
-16 19 26 21 71 5 100 -8 15 -68 50 -81 47 -2 0 -13 -4 -26 -10z"/>
<path d="M397 1302 c-35 -36 -36 -88 -5 -122 l23 -24 7 43 c4 24 19 63 33 87
l26 44 -29 0 c-18 0 -38 -10 -55 -28z"/>
<path d="M675 1027 c-19 -19 -35 -39 -35 -44 0 -5 15 -13 32 -18 44 -13 61
-48 43 -91 -13 -31 -12 -32 14 -37 48 -10 90 10 61 28 -14 9 -12 71 3 83 6 6
24 13 40 17 34 9 34 17 -1 56 -21 24 -38 32 -75 36 -43 5 -49 3 -82 -30z"/>
<path d="M452 950 c12 -19 58 -29 58 -12 0 16 -24 32 -47 32 -21 0 -22 -2 -11
-20z"/>
<path d="M390 923 c0 -10 5 -25 10 -33 7 -12 12 -12 22 -2 9 9 10 17 2 29 -15
24 -34 28 -34 6z"/>
<path d="M646 923 c-3 -3 -1 -14 5 -25 11 -20 29 -16 29 7 0 14 -24 27 -34 18z"/>
<path d="M824 915 c-9 -23 14 -45 26 -25 5 8 8 19 7 24 -6 17 -27 18 -33 1z"/>
<path d="M935 908 c-22 -11 -42 -26 -44 -32 -10 -26 -61 -65 -99 -76 -70 -18
-123 4 -185 80 -17 20 -25 22 -67 17 -88 -11 -123 -56 -92 -118 15 -29 26 -36
79 -50 35 -9 80 -28 101 -42 l39 -25 54 19 c65 22 101 23 162 5 54 -16 91 -43
130 -93 20 -28 24 -39 15 -45 -22 -13 -33 -9 -51 21 -36 61 -143 101 -217 81
-20 -5 -58 -26 -86 -45 -56 -40 -96 -44 -134 -15 -58 45 -110 8 -110 -77 0
-59 19 -85 75 -106 28 -10 75 -38 105 -61 115 -90 215 -116 318 -82 62 21 144
92 174 150 44 85 33 268 -24 380 -24 48 -87 136 -96 136 -4 -1 -25 -10 -47
-22z"/>
<path d="M1114 352 c-8 -12 -7 -25 2 -47 18 -42 17 -55 -4 -55 -10 0 -22 11
-28 25 -9 25 -10 25 -32 9 l-23 -16 21 -23 c12 -13 18 -28 14 -38 -8 -23 -13
-22 -45 9 -20 19 -33 24 -49 19 -26 -8 -22 -22 11 -48 38 -28 101 -33 138 -11
63 37 77 126 28 172 -21 20 -23 20 -33 4z"/>
</g>
</svg>
